<svg width="54" height="36" viewBox="0 0 54 36" fill="none" xmlns="http://www.w3.org/2000/svg">
<path d="M6.59492 36C2.72826 36 0.794922 34.1667 0.794922 30.5C0.794922 28.1 1.36159 25.5333 2.49492 22.8C3.69492 20 5.29492 17.3 7.29492 14.7C9.29492 12.0333 11.5283 9.63333 13.9949 7.5C16.4616 5.3 18.9949 3.56666 21.5949 2.3C24.1949 0.966666 26.6949 0.3 29.0949 0.3C33.3616 0.3 35.4949 2.4 35.4949 6.6C35.4949 9.33333 34.8283 10.7 33.4949 10.7C32.2949 10.7 31.6949 10.1333 31.6949 9C31.6949 8.53333 31.7949 8.06666 31.9949 7.6C32.2616 7.06667 32.3949 6.5 32.3949 5.9C32.3949 4.03333 31.1283 3.1 28.5949 3.1C24.5283 3.1 19.4283 6.2 13.2949 12.4C11.8283 13.9333 10.3949 15.7333 8.99492 17.8C7.59492 19.8667 6.42826 21.9667 5.49492 24.1C4.62826 26.1667 4.19492 28.1333 4.19492 30C4.19492 31.8 5.19492 32.7 7.19492 32.7C8.92826 32.7 10.7616 32.1667 12.6949 31.1C14.6949 30.0333 16.4283 28.9333 17.8949 27.8C20.8283 25.6 23.8283 22.6 26.8949 18.8C27.3616 18.2667 27.9616 17.5667 28.6949 16.7C29.4283 15.8333 30.2616 14.8667 31.1949 13.8C31.5283 13.4667 31.9283 13.3 32.3949 13.3C33.4616 13.3 33.9949 13.8333 33.9949 14.9L30.1949 20.6C27.6616 24.3333 26.3949 27.4 26.3949 29.8C26.3949 31.5333 27.2283 32.4 28.8949 32.4C30.2949 32.4 31.8283 32.0333 33.4949 31.3C35.1616 30.5667 36.5283 29.8333 37.5949 29.1C39.7283 27.7 41.9616 25.9667 44.2949 23.9C46.6283 21.7667 48.8616 19.6333 50.9949 17.5C51.2616 17.2333 51.6616 17.1 52.1949 17.1C53.1949 17.1 53.6949 17.5 53.6949 18.3C53.6949 19.0333 53.2283 19.8667 52.2949 20.8C49.6283 23.4667 47.2283 25.7667 45.0949 27.7C42.9616 29.5667 40.9283 31.1 38.9949 32.3C37.7283 33.0333 36.1616 33.8 34.2949 34.6C32.4283 35.4 30.2949 35.8 27.8949 35.8C24.6283 35.8 22.9949 34.0667 22.9949 30.6C22.9949 29.2667 23.1616 28.1667 23.4949 27.3C17.4283 33.1 11.7949 36 6.59492 36Z" fill="white"/>
</svg>
