<svg width="53" height="73" viewBox="0 0 53 73" fill="none" xmlns="http://www.w3.org/2000/svg">
<path d="M31.4016 72.9C30.8682 72.9 30.2016 72.6333 29.4016 72.1C28.6682 71.6333 28.1016 71.1667 27.7016 70.7C26.9016 69.7 26.3682 68.5 26.1016 67.1C25.8349 65.7 25.7016 64.1667 25.7016 62.5C25.7016 61.1 25.7349 59.6 25.8016 58C25.9349 56.3333 26.1349 54.5667 26.4016 52.7C24.6682 54.7 22.7016 56.6667 20.5016 58.6C18.3682 60.4667 16.1682 62 13.9016 63.2C11.7016 64.4 9.60156 65 7.60156 65C2.60156 65 0.101563 62.3333 0.101563 57C0.101563 51.4667 2.0349 46.1333 5.90156 41C7.8349 38.4667 10.0349 36.0333 12.5016 33.7C14.9682 31.3667 17.5682 29.4667 20.3016 28C23.0349 26.5333 25.7349 25.8 28.4016 25.8C30.4016 25.8 32.1682 26.5667 33.7016 28.1C33.8349 27.8333 34.0016 27.4 34.2016 26.8C34.4682 26.2 34.8349 25.4333 35.3016 24.5C36.9016 21.0333 38.6682 17.4333 40.6016 13.7C42.5349 9.9 44.2682 6.76667 45.8016 4.3C47.5349 1.56667 49.1682 0.199999 50.7016 0.199999C51.7682 0.199999 52.3016 1.03333 52.3016 2.7C52.3016 5.56666 49.6016 12.2667 44.2016 22.8C43.8682 23.4 43.2682 24.5 42.4016 26.1C41.6016 27.6333 40.6349 29.4333 39.5016 31.5C38.4349 33.5 37.3349 35.5 36.2016 37.5C35.0682 39.5 34.0349 41.3 33.1016 42.9C32.2349 44.4333 31.6016 45.5 31.2016 46.1C30.4682 49.1 29.9016 51.9667 29.5016 54.7C29.1016 57.3667 28.9016 60.1333 28.9016 63C28.9016 64.0667 28.9349 65.0333 29.0016 65.9C29.1349 66.8333 29.4016 67.5667 29.8016 68.1C30.1349 68.5 30.5016 68.8 30.9016 69C31.3016 69.2667 31.7682 69.5 32.3016 69.7C33.1016 69.9 33.5016 70.3667 33.5016 71.1C33.5016 72.3 32.8016 72.9 31.4016 72.9ZM36.1016 31.1C38.6349 26.7667 40.8682 22.7333 42.8016 19C44.7349 15.2 46.3016 11.6333 47.5016 8.3C44.8349 11.7667 42.6016 15.4333 40.8016 19.3C39.0016 23.1667 37.4349 27.1 36.1016 31.1ZM6.90156 62C8.8349 62 10.8682 61.3667 13.0016 60.1C15.2016 58.7667 17.2682 57.2 19.2016 55.4C20.9349 53.8 22.5349 52.1667 24.0016 50.5C25.4682 48.7667 26.8349 47 28.1016 45.2C28.6349 42.8667 29.2349 40.5667 29.9016 38.3C30.6349 36.0333 31.4349 33.7667 32.3016 31.5C31.2349 29.8333 29.7349 29 27.8016 29C25.8016 29 23.5682 29.7667 21.1016 31.3C18.7016 32.7667 16.3682 34.6 14.1016 36.8C11.9016 39 10.0016 41.1 8.40156 43.1C5.06823 47.5667 3.40156 52.3 3.40156 57.3C3.40156 60.4333 4.56823 62 6.90156 62Z" fill="white"/>
</svg>
