<svg width="41" height="40" viewBox="0 0 41 40" fill="none" xmlns="http://www.w3.org/2000/svg">
<path d="M9.42188 39.8C6.62188 39.8 4.42188 38.8333 2.82188 36.9C1.22188 34.9667 0.421875 32.6 0.421875 29.8C0.421875 25 2.02188 20.0667 5.22188 15C6.08854 13.6 7.08854 12.2333 8.22188 10.9C9.35521 9.5 10.5885 8.16666 11.9219 6.9C13.9219 4.96667 16.0219 3.36667 18.2219 2.1C20.4219 0.833331 22.5552 0.199998 24.6219 0.199998C28.0219 0.199998 29.7219 1.8 29.7219 5C29.7219 9 27.3885 12.6333 22.7219 15.9C18.3885 18.8333 14.1219 20.3 9.92188 20.3C9.18854 20.3 8.52188 20.2667 7.92188 20.2C7.38854 20.0667 6.88854 19.9333 6.42188 19.8C5.75521 21.0667 5.15521 22.7 4.62188 24.7C4.08854 26.7 3.82188 28.4333 3.82188 29.9C3.82188 34.3 5.75521 36.5 9.62188 36.5C12.7552 36.5 15.7219 35.9667 18.5219 34.9C21.3219 33.7667 24.6552 31.6667 28.5219 28.6C30.9219 26.7333 32.7219 25.2333 33.9219 24.1C35.1219 22.9667 36.4219 21.7667 37.8219 20.5C38.2219 20.2333 38.5885 20.1 38.9219 20.1C39.2552 20.1 39.5885 20.2 39.9219 20.4C40.2552 20.6 40.4219 20.9 40.4219 21.3C40.4219 22.0333 39.7552 23.0667 38.4219 24.4C37.2885 25.4667 36.0885 26.6 34.8219 27.8C33.5552 28.9333 31.5552 30.5333 28.8219 32.6C25.8885 34.8667 22.6885 36.6333 19.2219 37.9C15.7552 39.1667 12.4885 39.8 9.42188 39.8ZM9.32188 17.1C11.4552 17.1 13.4885 16.7667 15.4219 16.1C17.3552 15.4333 19.1885 14.4667 20.9219 13.2C24.7885 10.3333 26.7219 7.63333 26.7219 5.1C26.7219 3.96666 26.0219 3.4 24.6219 3.4C21.9552 3.4 18.8552 5.03333 15.3219 8.3C13.5885 9.9 12.1552 11.3667 11.0219 12.7C9.95521 13.9667 8.95521 15.3667 8.02188 16.9C8.42188 17.0333 8.85521 17.1 9.32188 17.1Z" fill="white"/>
</svg>
