<svg width="32" height="53" viewBox="0 0 32 53" fill="none" xmlns="http://www.w3.org/2000/svg">
<path d="M22.793 11.6C21.6596 11.6 21.093 11.0333 21.093 9.9C21.093 9.56667 21.3263 8.96667 21.793 8.1C22.2596 7.16666 22.793 6.23333 23.393 5.3C23.993 4.36667 24.4596 3.73333 24.793 3.4C25.9263 2.13333 26.793 1.33333 27.393 1C28.0596 0.666667 28.6596 0.5 29.193 0.5C30.593 0.5 31.293 1.13333 31.293 2.4C31.293 2.86666 30.993 3.43333 30.393 4.1C29.8596 4.7 29.2263 5.26667 28.493 5.8C27.4263 6.46666 26.7596 7 26.493 7.4L24.293 10.5C24.2263 10.7667 24.0596 11.0333 23.793 11.3C23.593 11.5 23.2596 11.6 22.793 11.6ZM5.79297 52.1C3.9263 52.1 2.55964 51.7333 1.69297 51C0.892969 50.2667 0.492969 49.1667 0.492969 47.7C0.492969 46.3 0.926302 44.4 1.79297 42C2.65964 39.5333 3.75964 36.9 5.09297 34.1C6.49297 31.3 7.95964 28.6333 9.49297 26.1C11.0263 23.5667 12.493 21.5 13.893 19.9C15.3596 18.2333 16.5263 17.4 17.393 17.4C18.593 17.4 19.193 17.9333 19.193 19C19.193 19.6667 18.6263 20.9333 17.493 22.8C16.3596 24.6667 15.1263 26.6 13.793 28.6C13.2596 29.3333 12.5263 30.3333 11.593 31.6C10.6596 32.8667 9.75964 34.0667 8.89297 35.2C8.0263 36.2667 7.45964 37 7.19297 37.4C6.5263 38.4 5.8263 40.0333 5.09297 42.3C4.29297 44.5667 3.89297 46.3 3.89297 47.5C3.89297 48.0333 3.99297 48.4333 4.19297 48.7C4.45964 48.9667 5.0263 49.1 5.89297 49.1C7.55964 49.1 9.4263 48.5667 11.493 47.5C13.5596 46.4333 15.6596 45.1 17.793 43.5C19.9263 41.8333 21.9263 40.1333 23.793 38.4C25.7263 36.6667 27.3596 35.1667 28.693 33.9C28.9596 33.6333 29.3596 33.5 29.893 33.5C30.893 33.5 31.393 33.9 31.393 34.7C31.393 35.4333 30.9263 36.2667 29.993 37.2C28.193 39 26.5263 40.6 24.993 42C23.4596 43.4 21.993 44.6333 20.593 45.7C18.393 47.3 15.9596 48.7667 13.293 50.1C10.6263 51.4333 8.1263 52.1 5.79297 52.1Z" fill="white"/>
</svg>
