<svg width="62" height="72" viewBox="0 0 62 72" fill="none" xmlns="http://www.w3.org/2000/svg">
<path d="M2.79414 71.3C2.32747 71.3 1.79414 71.0667 1.19414 70.6C0.594141 70.1333 0.294141 69.6333 0.294141 69.1C0.294141 68.5 0.960807 66.9667 2.29414 64.5C3.62747 62.0333 5.76081 58.3333 8.69414 53.4C11.6275 48.4667 15.4608 42.0667 20.1941 34.2L33.2941 12.3C34.0275 10.9667 34.9275 9.4 35.9941 7.6C37.0608 5.8 38.3608 3.66666 39.8941 1.19999C40.2941 0.599995 40.7275 0.299994 41.1941 0.299994C41.6608 0.299994 42.1275 0.533329 42.5941 0.999997C43.0608 1.4 43.2941 1.83333 43.2941 2.3C43.2941 2.56667 41.6275 5.53333 38.2941 11.2C34.9608 16.8 29.9275 25.1667 23.1941 36.3C20.6608 40.5 17.8941 45.1333 14.8941 50.2C11.9608 55.2667 8.82747 60.7667 5.49414 66.7C24.8275 61.5 39.6941 58.9 50.0941 58.9C53.2275 58.9 55.8275 59.4333 57.8941 60.5C60.0275 61.5 61.0941 62.5 61.0941 63.5C61.0941 64.6333 60.5275 65.2 59.3941 65.2C58.4608 65.2 57.9941 64.7 57.9941 63.7V63.4C57.3275 63.0667 56.1941 62.8 54.5941 62.6C52.9941 62.4 51.1608 62.3 49.0941 62.3C46.5608 62.3 43.6941 62.5333 40.4941 63C37.2941 63.4 34.0275 63.9333 30.6941 64.6C27.4275 65.2 24.3608 65.8333 21.4941 66.5C18.6941 67.1 16.0275 67.7333 13.4941 68.4C11.0275 69.1333 8.72747 69.7667 6.59414 70.3C5.32747 70.5667 4.39414 70.8 3.79414 71C3.26081 71.2 2.92747 71.3 2.79414 71.3Z" fill="white"/>
</svg>
