<svg width="32" height="40" viewBox="0 0 32 40" fill="none" xmlns="http://www.w3.org/2000/svg">
<path d="M6.02148 39.3C2.28815 39.3 0.421484 38.0667 0.421484 35.6C0.421484 34.0667 0.954818 32.5333 2.02148 31C3.15482 29.4667 4.48815 28.0667 6.02148 26.8C7.55482 25.5333 8.98815 24.5667 10.3215 23.9C10.7215 23.7 11.2548 23.5 11.9215 23.3C12.6548 23.1 13.2548 23 13.7215 23C14.2548 23 14.5215 23.2 14.5215 23.6C14.5215 23.9333 14.1548 24.3 13.4215 24.7C10.3548 26.1667 7.95482 27.9333 6.22148 30C4.55482 32 3.72148 33.6333 3.72148 34.9C3.72148 36.1 4.75482 36.7 6.82149 36.7C8.55482 36.7 10.4215 36.2667 12.4215 35.4C14.4882 34.5333 16.4215 33.4 18.2215 32C20.0882 30.6 21.6215 29.1 22.8215 27.5C24.0215 25.9 24.6215 24.3667 24.6215 22.9C24.6215 21.9 24.2882 21 23.6215 20.2C23.0215 19.4 22.0215 18.8 20.6215 18.4L14.0215 16.4C12.3548 15.8667 11.1548 15.1667 10.4215 14.3C9.68815 13.4333 9.32148 12.4667 9.32148 11.4C9.32148 9.4 10.0548 7.6 11.5215 6C13.0548 4.4 14.9548 3.13333 17.2215 2.2C19.4882 1.26666 21.6882 0.799997 23.8215 0.799997C25.9548 0.799997 27.8215 1.33333 29.4215 2.4C31.0215 3.4 31.8215 4.76667 31.8215 6.5C31.8215 7.5 31.5215 8.43333 30.9215 9.3C30.3882 10.1667 29.7548 10.6 29.0215 10.6C27.8882 10.6 27.3215 10.1333 27.3215 9.2C27.3215 8.86667 27.4882 8.46667 27.8215 8C28.2215 7.46667 28.4215 6.96666 28.4215 6.5C28.4215 4.5 26.8882 3.5 23.8215 3.5C22.1548 3.5 20.4882 3.86667 18.8215 4.6C17.2215 5.26666 15.8882 6.16667 14.8215 7.3C13.7548 8.43333 13.2215 9.66667 13.2215 11C13.2215 12.3333 14.5548 13.4 17.2215 14.2L23.6215 16.2C25.5548 16.8 26.8882 17.6333 27.6215 18.7C28.3548 19.7 28.7215 20.8333 28.7215 22.1C28.7215 25.1 26.8882 28.2 23.2215 31.4C17.2882 36.6667 11.5548 39.3 6.02148 39.3Z" fill="white"/>
</svg>
