<svg width="43" height="40" viewBox="0 0 43 40" fill="none" xmlns="http://www.w3.org/2000/svg">
<path d="M1.62695 39.5C0.560287 39.5 0.0269532 39.0667 0.0269532 38.2C0.0269532 37.8667 0.160287 37.4667 0.426953 37C0.69362 36.4667 0.926953 36.0333 1.12695 35.7L10.127 17.6C13.9936 9.73333 15.927 5.36667 15.927 4.5C15.927 3.56666 16.3936 3.1 17.327 3.1C18.5936 3.1 19.227 3.76667 19.227 5.1C19.227 5.56667 18.927 6.56667 18.327 8.1C17.727 9.63333 16.9603 11.3667 16.027 13.3C14.427 16.7667 13.0936 19.4333 12.027 21.3C14.027 18.9667 16.0603 16.7667 18.127 14.7C20.1936 12.6333 22.2936 10.6667 24.427 8.8C30.7603 3.26667 35.627 0.499999 39.027 0.499999C41.3603 0.499999 42.527 1.6 42.527 3.8C42.527 5.8 40.827 10.3 37.427 17.3C34.027 24.3667 32.327 28.8333 32.327 30.7C32.327 31.5667 32.627 32 33.227 32C33.427 32 33.727 31.9333 34.127 31.8C34.5936 31.6 35.0603 31.5 35.527 31.5C36.6603 31.5 37.227 32.0333 37.227 33.1C37.227 34.4333 35.7936 35.1 32.927 35.1C31.5936 35.1 30.627 34.8 30.027 34.2C29.427 33.5333 29.127 32.6667 29.127 31.6C29.127 28.4 30.7603 23.5333 34.027 17C37.2936 10.5333 38.927 6.63333 38.927 5.3C38.927 4.5 38.627 4.1 38.027 4.1C36.5603 4.1 34.1936 5.33333 30.927 7.8C27.3936 10.4667 23.8603 13.5333 20.327 17C16.7936 20.4667 13.427 24.4333 10.227 28.9L3.22695 38.6C2.82695 39.2 2.29362 39.5 1.62695 39.5Z" fill="white"/>
</svg>
