<svg width="48" height="73" viewBox="0 0 48 73" fill="none" xmlns="http://www.w3.org/2000/svg">
<path d="M9.27109 72.9C6.47109 72.9 4.37109 71.8333 2.97109 69.7C1.57109 67.6333 0.871094 65.2667 0.871094 62.6C0.871094 60.6 0.971094 58.6333 1.17109 56.7C1.30443 54.8333 1.53776 52.9667 1.87109 51.1C2.07109 50.0333 2.53776 49.5 3.27109 49.5C4.60443 49.5 5.27109 50.2 5.27109 51.6C5.27109 52 5.17109 52.6 4.97109 53.4C4.77109 54.0667 4.67109 54.5667 4.67109 54.9C4.53776 55.9667 4.43776 57.0667 4.37109 58.2C4.30443 59.4 4.27109 60.6 4.27109 61.8C4.27109 67.0667 6.20443 69.7 10.0711 69.7C11.2044 69.7 12.5044 68.9333 13.9711 67.4C15.5044 65.8667 16.8711 64.2 18.0711 62.4C20.8711 58.2 23.8378 51.5667 26.9711 42.5L30.2711 33C24.8711 39.4667 20.0044 42.7 15.6711 42.7C13.0044 42.7 10.9378 41.7 9.47109 39.7C8.00443 37.7 7.27109 35.2667 7.27109 32.4C7.27109 26.6667 9.80443 20.3333 14.8711 13.4C20.4044 6 25.8378 2.3 31.1711 2.3C35.3711 2.3 38.1378 4.76667 39.4711 9.7C42.0044 3.56667 44.3378 0.499999 46.4711 0.499999C47.2711 0.499999 47.6711 1.16666 47.6711 2.5C47.6711 5.16667 46.4378 8.73333 43.9711 13.2C43.4378 14.0667 42.7711 15.1333 41.9711 16.4C41.2378 17.6667 40.4044 19.1667 39.4711 20.9L36.0711 29.2C35.4044 30.8 34.5711 32.8333 33.5711 35.3C32.5711 37.7 31.4378 40.5333 30.1711 43.8C28.7044 47.8 27.3378 51.2333 26.0711 54.1C24.8711 57.0333 23.7711 59.4333 22.7711 61.3C18.4378 69.0333 14.0711 72.9 9.67109 72.9H9.27109ZM15.6711 39.2C19.8711 39.2 26.0711 33.5667 34.2711 22.3L37.1711 14.9C36.7044 14.5667 36.3711 13.8667 36.1711 12.8C35.5711 9.93333 34.8711 8.03333 34.0711 7.1C33.2711 6.16666 32.2044 5.7 30.8711 5.7C29.3378 5.7 27.5711 6.4 25.5711 7.8C23.5711 9.2 21.6711 10.9333 19.8711 13C18.0711 15 16.6378 16.9667 15.5711 18.9C12.3711 24.3667 10.7711 29.0667 10.7711 33C10.7711 37.1333 12.4044 39.2 15.6711 39.2Z" fill="white"/>
</svg>
