<svg width="529" height="223" viewBox="0 0 529 223" fill="none" xmlns="http://www.w3.org/2000/svg">
<path d="M6.27148 70.3C2.53815 70.3 0.671484 69.0667 0.671484 66.6C0.671484 65.0667 1.20482 63.5333 2.27148 62C3.40482 60.4667 4.73815 59.0667 6.27148 57.8C7.80482 56.5333 9.23815 55.5667 10.5715 54.9C10.9715 54.7 11.5048 54.5 12.1715 54.3C12.9048 54.1 13.5048 54 13.9715 54C14.5048 54 14.7715 54.2 14.7715 54.6C14.7715 54.9333 14.4048 55.3 13.6715 55.7C10.6048 57.1667 8.20482 58.9333 6.47148 61C4.80482 63 3.97148 64.6333 3.97148 65.9C3.97148 67.1 5.00482 67.7 7.07149 67.7C8.80482 67.7 10.6715 67.2667 12.6715 66.4C14.7382 65.5333 16.6715 64.4 18.4715 63C20.3382 61.6 21.8715 60.1 23.0715 58.5C24.2715 56.9 24.8715 55.3667 24.8715 53.9C24.8715 52.9 24.5382 52 23.8715 51.2C23.2715 50.4 22.2715 49.8 20.8715 49.4L14.2715 47.4C12.6048 46.8667 11.4048 46.1667 10.6715 45.3C9.93815 44.4333 9.57148 43.4667 9.57148 42.4C9.57148 40.4 10.3048 38.6 11.7715 37C13.3048 35.4 15.2048 34.1333 17.4715 33.2C19.7382 32.2667 21.9382 31.8 24.0715 31.8C26.2048 31.8 28.0715 32.3333 29.6715 33.4C31.2715 34.4 32.0715 35.7667 32.0715 37.5C32.0715 38.5 31.7715 39.4333 31.1715 40.3C30.6382 41.1667 30.0048 41.6 29.2715 41.6C28.1382 41.6 27.5715 41.1333 27.5715 40.2C27.5715 39.8667 27.7382 39.4667 28.0715 39C28.4715 38.4667 28.6715 37.9667 28.6715 37.5C28.6715 35.5 27.1382 34.5 24.0715 34.5C22.4048 34.5 20.7382 34.8667 19.0715 35.6C17.4715 36.2667 16.1382 37.1667 15.0715 38.3C14.0048 39.4333 13.4715 40.6667 13.4715 42C13.4715 43.3333 14.8048 44.4 17.4715 45.2L23.8715 47.2C25.8048 47.8 27.1382 48.6333 27.8715 49.7C28.6048 50.7 28.9715 51.8333 28.9715 53.1C28.9715 56.1 27.1382 59.2 23.4715 62.4C17.5382 67.6667 11.8048 70.3 6.27148 70.3ZM89.5285 68C85.6618 68 83.7285 66.1667 83.7285 62.5C83.7285 60.1 84.2952 57.5333 85.4285 54.8C86.6285 52 88.2285 49.3 90.2285 46.7C92.2285 44.0333 94.4618 41.6333 96.9285 39.5C99.3952 37.3 101.929 35.5667 104.529 34.3C107.129 32.9667 109.629 32.3 112.029 32.3C116.295 32.3 118.429 34.4 118.429 38.6C118.429 41.3333 117.762 42.7 116.429 42.7C115.229 42.7 114.629 42.1333 114.629 41C114.629 40.5333 114.729 40.0667 114.929 39.6C115.195 39.0667 115.329 38.5 115.329 37.9C115.329 36.0333 114.062 35.1 111.529 35.1C107.462 35.1 102.362 38.2 96.2285 44.4C94.7618 45.9333 93.3285 47.7333 91.9285 49.8C90.5285 51.8667 89.3618 53.9667 88.4285 56.1C87.5618 58.1667 87.1285 60.1333 87.1285 62C87.1285 63.8 88.1285 64.7 90.1285 64.7C91.8618 64.7 93.6952 64.1667 95.6285 63.1C97.6285 62.0333 99.3618 60.9333 100.829 59.8C103.762 57.6 106.762 54.6 109.829 50.8C110.295 50.2667 110.895 49.5667 111.629 48.7C112.362 47.8333 113.195 46.8667 114.129 45.8C114.462 45.4667 114.862 45.3 115.329 45.3C116.395 45.3 116.929 45.8333 116.929 46.9L113.129 52.6C110.595 56.3333 109.329 59.4 109.329 61.8C109.329 63.5333 110.162 64.4 111.829 64.4C113.229 64.4 114.762 64.0333 116.429 63.3C118.095 62.5667 119.462 61.8333 120.529 61.1C122.662 59.7 124.895 57.9667 127.229 55.9C129.562 53.7667 131.795 51.6333 133.929 49.5C134.195 49.2333 134.595 49.1 135.129 49.1C136.129 49.1 136.629 49.5 136.629 50.3C136.629 51.0333 136.162 51.8667 135.229 52.8C132.562 55.4667 130.162 57.7667 128.029 59.7C125.895 61.5667 123.862 63.1 121.929 64.3C120.662 65.0333 119.095 65.8 117.229 66.6C115.362 67.4 113.229 67.8 110.829 67.8C107.562 67.8 105.929 66.0667 105.929 62.6C105.929 61.2667 106.095 60.1667 106.429 59.3C100.362 65.1 94.7285 68 89.5285 68ZM182.539 99.9C179.739 99.9 177.639 98.8333 176.239 96.7C174.839 94.6333 174.139 92.2667 174.139 89.6C174.139 87.6 174.239 85.6333 174.439 83.7C174.572 81.8333 174.805 79.9667 175.139 78.1C175.339 77.0333 175.805 76.5 176.539 76.5C177.872 76.5 178.539 77.2 178.539 78.6C178.539 79 178.439 79.6 178.239 80.4C178.039 81.0667 177.939 81.5667 177.939 81.9C177.805 82.9667 177.705 84.0667 177.639 85.2C177.572 86.4 177.539 87.6 177.539 88.8C177.539 94.0667 179.472 96.7 183.339 96.7C184.472 96.7 185.772 95.9333 187.239 94.4C188.772 92.8667 190.139 91.2 191.339 89.4C194.139 85.2 197.105 78.5667 200.239 69.5L203.539 60C198.139 66.4667 193.272 69.7 188.939 69.7C186.272 69.7 184.205 68.7 182.739 66.7C181.272 64.7 180.539 62.2667 180.539 59.4C180.539 53.6667 183.072 47.3333 188.139 40.4C193.672 33 199.105 29.3 204.439 29.3C208.639 29.3 211.405 31.7667 212.739 36.7C215.272 30.5667 217.605 27.5 219.739 27.5C220.539 27.5 220.939 28.1667 220.939 29.5C220.939 32.1667 219.705 35.7333 217.239 40.2C216.705 41.0667 216.039 42.1333 215.239 43.4C214.505 44.6667 213.672 46.1667 212.739 47.9L209.339 56.2C208.672 57.8 207.839 59.8333 206.839 62.3C205.839 64.7 204.705 67.5333 203.439 70.8C201.972 74.8 200.605 78.2333 199.339 81.1C198.139 84.0333 197.039 86.4333 196.039 88.3C191.705 96.0333 187.339 99.9 182.939 99.9H182.539ZM188.939 66.2C193.139 66.2 199.339 60.5667 207.539 49.3L210.439 41.9C209.972 41.5667 209.639 40.8667 209.439 39.8C208.839 36.9333 208.139 35.0333 207.339 34.1C206.539 33.1667 205.472 32.7 204.139 32.7C202.605 32.7 200.839 33.4 198.839 34.8C196.839 36.2 194.939 37.9333 193.139 40C191.339 42 189.905 43.9667 188.839 45.9C185.639 51.3667 184.039 56.0667 184.039 60C184.039 64.1333 185.672 66.2 188.939 66.2ZM274.196 68C270.33 68 268.396 66.1667 268.396 62.5C268.396 60.1 268.963 57.5333 270.096 54.8C271.296 52 272.896 49.3 274.896 46.7C276.896 44.0333 279.13 41.6333 281.596 39.5C284.063 37.3 286.596 35.5667 289.196 34.3C291.796 32.9667 294.296 32.3 296.696 32.3C300.963 32.3 303.096 34.4 303.096 38.6C303.096 41.3333 302.43 42.7 301.096 42.7C299.896 42.7 299.296 42.1333 299.296 41C299.296 40.5333 299.396 40.0667 299.596 39.6C299.863 39.0667 299.996 38.5 299.996 37.9C299.996 36.0333 298.73 35.1 296.196 35.1C292.13 35.1 287.03 38.2 280.896 44.4C279.43 45.9333 277.996 47.7333 276.596 49.8C275.196 51.8667 274.03 53.9667 273.096 56.1C272.23 58.1667 271.796 60.1333 271.796 62C271.796 63.8 272.796 64.7 274.796 64.7C276.53 64.7 278.363 64.1667 280.296 63.1C282.296 62.0333 284.03 60.9333 285.496 59.8C288.43 57.6 291.43 54.6 294.496 50.8C294.963 50.2667 295.563 49.5667 296.296 48.7C297.03 47.8333 297.863 46.8667 298.796 45.8C299.13 45.4667 299.53 45.3 299.996 45.3C301.063 45.3 301.596 45.8333 301.596 46.9L297.796 52.6C295.263 56.3333 293.996 59.4 293.996 61.8C293.996 63.5333 294.83 64.4 296.496 64.4C297.896 64.4 299.43 64.0333 301.096 63.3C302.763 62.5667 304.13 61.8333 305.196 61.1C307.33 59.7 309.563 57.9667 311.896 55.9C314.23 53.7667 316.463 51.6333 318.596 49.5C318.863 49.2333 319.263 49.1 319.796 49.1C320.796 49.1 321.296 49.5 321.296 50.3C321.296 51.0333 320.83 51.8667 319.896 52.8C317.23 55.4667 314.83 57.7667 312.696 59.7C310.563 61.5667 308.53 63.1 306.596 64.3C305.33 65.0333 303.763 65.8 301.896 66.6C300.03 67.4 297.896 67.8 295.496 67.8C292.23 67.8 290.596 66.0667 290.596 62.6C290.596 61.2667 290.763 60.1667 291.096 59.3C285.03 65.1 279.396 68 274.196 68ZM361.607 71.3C361.14 71.3 360.607 71.0667 360.007 70.6C359.407 70.1333 359.107 69.6333 359.107 69.1C359.107 68.5 359.773 66.9667 361.107 64.5C362.44 62.0333 364.573 58.3333 367.507 53.4C370.44 48.4667 374.273 42.0667 379.007 34.2L392.107 12.3C392.84 10.9667 393.74 9.4 394.807 7.6C395.873 5.8 397.173 3.66666 398.707 1.19999C399.107 0.599995 399.54 0.299994 400.007 0.299994C400.473 0.299994 400.94 0.533329 401.407 0.999997C401.873 1.4 402.107 1.83333 402.107 2.3C402.107 2.56667 400.44 5.53333 397.107 11.2C393.773 16.8 388.74 25.1667 382.007 36.3C379.473 40.5 376.707 45.1333 373.707 50.2C370.773 55.2667 367.64 60.7667 364.307 66.7C383.64 61.5 398.507 58.9 408.907 58.9C412.04 58.9 414.64 59.4333 416.707 60.5C418.84 61.5 419.907 62.5 419.907 63.5C419.907 64.6333 419.34 65.2 418.207 65.2C417.273 65.2 416.807 64.7 416.807 63.7V63.4C416.14 63.0667 415.007 62.8 413.407 62.6C411.807 62.4 409.973 62.3 407.907 62.3C405.373 62.3 402.507 62.5333 399.307 63C396.107 63.4 392.84 63.9333 389.507 64.6C386.24 65.2 383.173 65.8333 380.307 66.5C377.507 67.1 374.84 67.7333 372.307 68.4C369.84 69.1333 367.54 69.7667 365.407 70.3C364.14 70.5667 363.207 70.8 362.607 71C362.073 71.2 361.74 71.3 361.607 71.3ZM481.618 68C477.752 68 475.818 66.1667 475.818 62.5C475.818 60.1 476.385 57.5333 477.518 54.8C478.718 52 480.318 49.3 482.318 46.7C484.318 44.0333 486.552 41.6333 489.018 39.5C491.485 37.3 494.018 35.5667 496.618 34.3C499.218 32.9667 501.718 32.3 504.118 32.3C508.385 32.3 510.518 34.4 510.518 38.6C510.518 41.3333 509.852 42.7 508.518 42.7C507.318 42.7 506.718 42.1333 506.718 41C506.718 40.5333 506.818 40.0667 507.018 39.6C507.285 39.0667 507.418 38.5 507.418 37.9C507.418 36.0333 506.152 35.1 503.618 35.1C499.552 35.1 494.452 38.2 488.318 44.4C486.852 45.9333 485.418 47.7333 484.018 49.8C482.618 51.8667 481.452 53.9667 480.518 56.1C479.652 58.1667 479.218 60.1333 479.218 62C479.218 63.8 480.218 64.7 482.218 64.7C483.952 64.7 485.785 64.1667 487.718 63.1C489.718 62.0333 491.452 60.9333 492.918 59.8C495.852 57.6 498.852 54.6 501.918 50.8C502.385 50.2667 502.985 49.5667 503.718 48.7C504.452 47.8333 505.285 46.8667 506.218 45.8C506.552 45.4667 506.952 45.3 507.418 45.3C508.485 45.3 509.018 45.8333 509.018 46.9L505.218 52.6C502.685 56.3333 501.418 59.4 501.418 61.8C501.418 63.5333 502.252 64.4 503.918 64.4C505.318 64.4 506.852 64.0333 508.518 63.3C510.185 62.5667 511.552 61.8333 512.618 61.1C514.752 59.7 516.985 57.9667 519.318 55.9C521.652 53.7667 523.885 51.6333 526.018 49.5C526.285 49.2333 526.685 49.1 527.218 49.1C528.218 49.1 528.718 49.5 528.718 50.3C528.718 51.0333 528.252 51.8667 527.318 52.8C524.652 55.4667 522.252 57.7667 520.118 59.7C517.985 61.5667 515.952 63.1 514.018 64.3C512.752 65.0333 511.185 65.8 509.318 66.6C507.452 67.4 505.318 67.8 502.918 67.8C499.652 67.8 498.018 66.0667 498.018 62.6C498.018 61.2667 498.185 60.1667 498.518 59.3C492.452 65.1 486.818 68 481.618 68ZM65.1359 198.9C64.6026 198.9 63.9359 198.633 63.1359 198.1C62.4026 197.633 61.8359 197.167 61.4359 196.7C60.6359 195.7 60.1026 194.5 59.8359 193.1C59.5693 191.7 59.4359 190.167 59.4359 188.5C59.4359 187.1 59.4693 185.6 59.5359 184C59.6693 182.333 59.8693 180.567 60.1359 178.7C58.4026 180.7 56.4359 182.667 54.2359 184.6C52.1026 186.467 49.9026 188 47.6359 189.2C45.4359 190.4 43.3359 191 41.3359 191C36.3359 191 33.8359 188.333 33.8359 183C33.8359 177.467 35.7693 172.133 39.6359 167C41.5693 164.467 43.7693 162.033 46.2359 159.7C48.7026 157.367 51.3026 155.467 54.0359 154C56.7693 152.533 59.4693 151.8 62.1359 151.8C64.1359 151.8 65.9026 152.567 67.4359 154.1C67.5693 153.833 67.7359 153.4 67.9359 152.8C68.2026 152.2 68.5693 151.433 69.0359 150.5C70.6359 147.033 72.4026 143.433 74.3359 139.7C76.2693 135.9 78.0026 132.767 79.5359 130.3C81.2693 127.567 82.9026 126.2 84.4359 126.2C85.5026 126.2 86.0359 127.033 86.0359 128.7C86.0359 131.567 83.3359 138.267 77.9359 148.8C77.6026 149.4 77.0026 150.5 76.1359 152.1C75.3359 153.633 74.3693 155.433 73.2359 157.5C72.1693 159.5 71.0693 161.5 69.9359 163.5C68.8026 165.5 67.7693 167.3 66.8359 168.9C65.9693 170.433 65.3359 171.5 64.9359 172.1C64.2026 175.1 63.6359 177.967 63.2359 180.7C62.8359 183.367 62.6359 186.133 62.6359 189C62.6359 190.067 62.6693 191.033 62.7359 191.9C62.8693 192.833 63.1359 193.567 63.5359 194.1C63.8693 194.5 64.2359 194.8 64.6359 195C65.0359 195.267 65.5026 195.5 66.0359 195.7C66.8359 195.9 67.2359 196.367 67.2359 197.1C67.2359 198.3 66.5359 198.9 65.1359 198.9ZM69.8359 157.1C72.3693 152.767 74.6026 148.733 76.5359 145C78.4693 141.2 80.0359 137.633 81.2359 134.3C78.5693 137.767 76.3359 141.433 74.5359 145.3C72.7359 149.167 71.1693 153.1 69.8359 157.1ZM40.6359 188C42.5693 188 44.6026 187.367 46.7359 186.1C48.9359 184.767 51.0026 183.2 52.9359 181.4C54.6693 179.8 56.2693 178.167 57.7359 176.5C59.2026 174.767 60.5693 173 61.8359 171.2C62.3693 168.867 62.9693 166.567 63.6359 164.3C64.3693 162.033 65.1693 159.767 66.0359 157.5C64.9693 155.833 63.4693 155 61.5359 155C59.5359 155 57.3026 155.767 54.8359 157.3C52.4359 158.767 50.1026 160.6 47.8359 162.8C45.6359 165 43.7359 167.1 42.1359 169.1C38.8026 173.567 37.1359 178.3 37.1359 183.3C37.1359 186.433 38.3026 188 40.6359 188ZM134.633 191.8C131.833 191.8 129.633 190.833 128.033 188.9C126.433 186.967 125.633 184.6 125.633 181.8C125.633 177 127.233 172.067 130.433 167C131.299 165.6 132.299 164.233 133.433 162.9C134.566 161.5 135.799 160.167 137.133 158.9C139.133 156.967 141.233 155.367 143.433 154.1C145.633 152.833 147.766 152.2 149.833 152.2C153.233 152.2 154.933 153.8 154.933 157C154.933 161 152.599 164.633 147.933 167.9C143.599 170.833 139.333 172.3 135.133 172.3C134.399 172.3 133.733 172.267 133.133 172.2C132.599 172.067 132.099 171.933 131.633 171.8C130.966 173.067 130.366 174.7 129.833 176.7C129.299 178.7 129.033 180.433 129.033 181.9C129.033 186.3 130.966 188.5 134.833 188.5C137.966 188.5 140.933 187.967 143.733 186.9C146.533 185.767 149.866 183.667 153.733 180.6C156.133 178.733 157.933 177.233 159.133 176.1C160.333 174.967 161.633 173.767 163.033 172.5C163.433 172.233 163.799 172.1 164.133 172.1C164.466 172.1 164.799 172.2 165.133 172.4C165.466 172.6 165.633 172.9 165.633 173.3C165.633 174.033 164.966 175.067 163.633 176.4C162.499 177.467 161.299 178.6 160.033 179.8C158.766 180.933 156.766 182.533 154.033 184.6C151.099 186.867 147.899 188.633 144.433 189.9C140.966 191.167 137.699 191.8 134.633 191.8ZM134.533 169.1C136.666 169.1 138.699 168.767 140.633 168.1C142.566 167.433 144.399 166.467 146.133 165.2C149.999 162.333 151.933 159.633 151.933 157.1C151.933 155.967 151.233 155.4 149.833 155.4C147.166 155.4 144.066 157.033 140.533 160.3C138.799 161.9 137.366 163.367 136.233 164.7C135.166 165.967 134.166 167.367 133.233 168.9C133.633 169.033 134.066 169.1 134.533 169.1ZM211.789 193.3C208.056 193.3 206.189 192.067 206.189 189.6C206.189 188.067 206.722 186.533 207.789 185C208.922 183.467 210.256 182.067 211.789 180.8C213.322 179.533 214.756 178.567 216.089 177.9C216.489 177.7 217.022 177.5 217.689 177.3C218.422 177.1 219.022 177 219.489 177C220.022 177 220.289 177.2 220.289 177.6C220.289 177.933 219.922 178.3 219.189 178.7C216.122 180.167 213.722 181.933 211.989 184C210.322 186 209.489 187.633 209.489 188.9C209.489 190.1 210.522 190.7 212.589 190.7C214.322 190.7 216.189 190.267 218.189 189.4C220.256 188.533 222.189 187.4 223.989 186C225.856 184.6 227.389 183.1 228.589 181.5C229.789 179.9 230.389 178.367 230.389 176.9C230.389 175.9 230.056 175 229.389 174.2C228.789 173.4 227.789 172.8 226.389 172.4L219.789 170.4C218.122 169.867 216.922 169.167 216.189 168.3C215.456 167.433 215.089 166.467 215.089 165.4C215.089 163.4 215.822 161.6 217.289 160C218.822 158.4 220.722 157.133 222.989 156.2C225.256 155.267 227.456 154.8 229.589 154.8C231.722 154.8 233.589 155.333 235.189 156.4C236.789 157.4 237.589 158.767 237.589 160.5C237.589 161.5 237.289 162.433 236.689 163.3C236.156 164.167 235.522 164.6 234.789 164.6C233.656 164.6 233.089 164.133 233.089 163.2C233.089 162.867 233.256 162.467 233.589 162C233.989 161.467 234.189 160.967 234.189 160.5C234.189 158.5 232.656 157.5 229.589 157.5C227.922 157.5 226.256 157.867 224.589 158.6C222.989 159.267 221.656 160.167 220.589 161.3C219.522 162.433 218.989 163.667 218.989 165C218.989 166.333 220.322 167.4 222.989 168.2L229.389 170.2C231.322 170.8 232.656 171.633 233.389 172.7C234.122 173.7 234.489 174.833 234.489 176.1C234.489 179.1 232.656 182.2 228.989 185.4C223.056 190.667 217.322 193.3 211.789 193.3ZM312.246 150.6C311.113 150.6 310.546 150.033 310.546 148.9C310.546 148.567 310.779 147.967 311.246 147.1C311.713 146.167 312.246 145.233 312.846 144.3C313.446 143.367 313.913 142.733 314.246 142.4C315.379 141.133 316.246 140.333 316.846 140C317.513 139.667 318.113 139.5 318.646 139.5C320.046 139.5 320.746 140.133 320.746 141.4C320.746 141.867 320.446 142.433 319.846 143.1C319.313 143.7 318.679 144.267 317.946 144.8C316.879 145.467 316.213 146 315.946 146.4L313.746 149.5C313.679 149.767 313.513 150.033 313.246 150.3C313.046 150.5 312.713 150.6 312.246 150.6ZM295.246 191.1C293.379 191.1 292.013 190.733 291.146 190C290.346 189.267 289.946 188.167 289.946 186.7C289.946 185.3 290.379 183.4 291.246 181C292.113 178.533 293.213 175.9 294.546 173.1C295.946 170.3 297.413 167.633 298.946 165.1C300.479 162.567 301.946 160.5 303.346 158.9C304.813 157.233 305.979 156.4 306.846 156.4C308.046 156.4 308.646 156.933 308.646 158C308.646 158.667 308.079 159.933 306.946 161.8C305.813 163.667 304.579 165.6 303.246 167.6C302.713 168.333 301.979 169.333 301.046 170.6C300.113 171.867 299.213 173.067 298.346 174.2C297.479 175.267 296.913 176 296.646 176.4C295.979 177.4 295.279 179.033 294.546 181.3C293.746 183.567 293.346 185.3 293.346 186.5C293.346 187.033 293.446 187.433 293.646 187.7C293.913 187.967 294.479 188.1 295.346 188.1C297.013 188.1 298.879 187.567 300.946 186.5C303.013 185.433 305.113 184.1 307.246 182.5C309.379 180.833 311.379 179.133 313.246 177.4C315.179 175.667 316.813 174.167 318.146 172.9C318.413 172.633 318.813 172.5 319.346 172.5C320.346 172.5 320.846 172.9 320.846 173.7C320.846 174.433 320.379 175.267 319.446 176.2C317.646 178 315.979 179.6 314.446 181C312.913 182.4 311.446 183.633 310.046 184.7C307.846 186.3 305.413 187.767 302.746 189.1C300.079 190.433 297.579 191.1 295.246 191.1ZM367.06 222.9C364.26 222.9 362.16 221.833 360.76 219.7C359.36 217.633 358.66 215.267 358.66 212.6C358.66 210.6 358.76 208.633 358.96 206.7C359.093 204.833 359.327 202.967 359.66 201.1C359.86 200.033 360.327 199.5 361.06 199.5C362.393 199.5 363.06 200.2 363.06 201.6C363.06 202 362.96 202.6 362.76 203.4C362.56 204.067 362.46 204.567 362.46 204.9C362.327 205.967 362.227 207.067 362.16 208.2C362.093 209.4 362.06 210.6 362.06 211.8C362.06 217.067 363.993 219.7 367.86 219.7C368.993 219.7 370.293 218.933 371.76 217.4C373.293 215.867 374.66 214.2 375.86 212.4C378.66 208.2 381.627 201.567 384.76 192.5L388.06 183C382.66 189.467 377.793 192.7 373.46 192.7C370.793 192.7 368.727 191.7 367.26 189.7C365.793 187.7 365.06 185.267 365.06 182.4C365.06 176.667 367.593 170.333 372.66 163.4C378.193 156 383.627 152.3 388.96 152.3C393.16 152.3 395.927 154.767 397.26 159.7C399.793 153.567 402.127 150.5 404.26 150.5C405.06 150.5 405.46 151.167 405.46 152.5C405.46 155.167 404.227 158.733 401.76 163.2C401.227 164.067 400.56 165.133 399.76 166.4C399.027 167.667 398.193 169.167 397.26 170.9L393.86 179.2C393.193 180.8 392.36 182.833 391.36 185.3C390.36 187.7 389.227 190.533 387.96 193.8C386.493 197.8 385.127 201.233 383.86 204.1C382.66 207.033 381.56 209.433 380.56 211.3C376.227 219.033 371.86 222.9 367.46 222.9H367.06ZM373.46 189.2C377.66 189.2 383.86 183.567 392.06 172.3L394.96 164.9C394.493 164.567 394.16 163.867 393.96 162.8C393.36 159.933 392.66 158.033 391.86 157.1C391.06 156.167 389.993 155.7 388.66 155.7C387.127 155.7 385.36 156.4 383.36 157.8C381.36 159.2 379.46 160.933 377.66 163C375.86 165 374.427 166.967 373.36 168.9C370.16 174.367 368.56 179.067 368.56 183C368.56 187.133 370.193 189.2 373.46 189.2ZM450.918 192.5C449.851 192.5 449.318 192.067 449.318 191.2C449.318 190.867 449.451 190.467 449.718 190C449.985 189.467 450.218 189.033 450.418 188.7L459.418 170.6C463.285 162.733 465.218 158.367 465.218 157.5C465.218 156.567 465.685 156.1 466.618 156.1C467.885 156.1 468.518 156.767 468.518 158.1C468.518 158.567 468.218 159.567 467.618 161.1C467.018 162.633 466.251 164.367 465.318 166.3C463.718 169.767 462.385 172.433 461.318 174.3C463.318 171.967 465.351 169.767 467.418 167.7C469.485 165.633 471.585 163.667 473.718 161.8C480.051 156.267 484.918 153.5 488.318 153.5C490.651 153.5 491.818 154.6 491.818 156.8C491.818 158.8 490.118 163.3 486.718 170.3C483.318 177.367 481.618 181.833 481.618 183.7C481.618 184.567 481.918 185 482.518 185C482.718 185 483.018 184.933 483.418 184.8C483.885 184.6 484.351 184.5 484.818 184.5C485.951 184.5 486.518 185.033 486.518 186.1C486.518 187.433 485.085 188.1 482.218 188.1C480.885 188.1 479.918 187.8 479.318 187.2C478.718 186.533 478.418 185.667 478.418 184.6C478.418 181.4 480.051 176.533 483.318 170C486.585 163.533 488.218 159.633 488.218 158.3C488.218 157.5 487.918 157.1 487.318 157.1C485.851 157.1 483.485 158.333 480.218 160.8C476.685 163.467 473.151 166.533 469.618 170C466.085 173.467 462.718 177.433 459.518 181.9L452.518 191.6C452.118 192.2 451.585 192.5 450.918 192.5Z" fill="white"/>
</svg>
