<svg width="27" height="27" viewBox="0 0 27 27" fill="none" xmlns="http://www.w3.org/2000/svg">
<path d="M13.5 8.09209C10.5073 8.09209 8.09209 10.5073 8.09209 13.5C8.09209 16.4927 10.5073 18.9079 13.5 18.9079C16.4927 18.9079 18.9079 16.4927 18.9079 13.5C18.9079 10.5073 16.4927 8.09209 13.5 8.09209ZM13.5 17.0147C11.5647 17.0147 9.98526 15.4354 9.98526 13.5C9.98526 11.5646 11.5647 9.98525 13.5 9.98525C15.4354 9.98525 17.0147 11.5646 17.0147 13.5C17.0147 15.4354 15.4354 17.0147 13.5 17.0147ZM19.1294 6.61025C18.4307 6.61025 17.8664 7.17451 17.8664 7.87324C17.8664 8.57197 18.4307 9.13623 19.1294 9.13623C19.8281 9.13623 20.3924 8.57461 20.3924 7.87324C20.3926 7.70733 20.3601 7.543 20.2967 7.38967C20.2333 7.23634 20.1403 7.09703 20.0229 6.97971C19.9056 6.86239 19.7663 6.76937 19.613 6.70597C19.4596 6.64257 19.2953 6.61005 19.1294 6.61025V6.61025ZM24.0416 13.5C24.0416 12.0445 24.0548 10.6022 23.9731 9.14941C23.8913 7.46191 23.5064 5.96426 22.2724 4.73027C21.0357 3.49365 19.5407 3.11133 17.8532 3.02959C16.3978 2.94785 14.9555 2.96104 13.5026 2.96104C12.0472 2.96104 10.6049 2.94785 9.15205 3.02959C7.46455 3.11133 5.9669 3.49629 4.73291 4.73027C3.49629 5.96689 3.11397 7.46191 3.03223 9.14941C2.95049 10.6049 2.96367 12.0472 2.96367 13.5C2.96367 14.9528 2.95049 16.3978 3.03223 17.8506C3.11397 19.5381 3.49893 21.0357 4.73291 22.2697C5.96953 23.5063 7.46455 23.8887 9.15205 23.9704C10.6075 24.0521 12.0498 24.039 13.5026 24.039C14.9581 24.039 16.4004 24.0521 17.8532 23.9704C19.5407 23.8887 21.0384 23.5037 22.2724 22.2697C23.509 21.0331 23.8913 19.5381 23.9731 17.8506C24.0574 16.3978 24.0416 14.9555 24.0416 13.5V13.5ZM21.7213 19.7174C21.5288 20.1973 21.2968 20.5559 20.925 20.925C20.5532 21.2968 20.1973 21.5288 19.7174 21.7213C18.3305 22.2724 15.0372 22.1484 13.5 22.1484C11.9628 22.1484 8.6669 22.2724 7.27998 21.7239C6.8001 21.5314 6.44151 21.2994 6.07237 20.9276C5.70059 20.5559 5.46856 20.1999 5.27608 19.72C4.72764 18.3305 4.85157 15.0372 4.85157 13.5C4.85157 11.9628 4.72764 8.66689 5.27608 7.27998C5.46856 6.8001 5.70059 6.4415 6.07237 6.07236C6.44414 5.70322 6.8001 5.46855 7.27998 5.27607C8.6669 4.72764 11.9628 4.85156 13.5 4.85156C15.0372 4.85156 18.3331 4.72764 19.72 5.27607C20.1999 5.46855 20.5585 5.70059 20.9276 6.07236C21.2994 6.44414 21.5314 6.8001 21.7239 7.27998C22.2724 8.66689 22.1484 11.9628 22.1484 13.5C22.1484 15.0372 22.2724 18.3305 21.7213 19.7174Z" fill="#2050B6"/>
</svg>
