<svg width="286" height="121" viewBox="0 0 286 121" fill="none" xmlns="http://www.w3.org/2000/svg">
<path d="M3.3366 38.782C1.3206 38.782 0.312602 38.116 0.312602 36.784C0.312602 35.956 0.600602 35.128 1.1766 34.3C1.7886 33.472 2.5086 32.716 3.3366 32.032C4.1646 31.348 4.9386 30.826 5.6586 30.466C5.8746 30.358 6.1626 30.25 6.5226 30.142C6.9186 30.034 7.2426 29.98 7.4946 29.98C7.7826 29.98 7.9266 30.088 7.9266 30.304C7.9266 30.484 7.7286 30.682 7.3326 30.898C5.6766 31.69 4.3806 32.644 3.4446 33.76C2.5446 34.84 2.0946 35.722 2.0946 36.406C2.0946 37.054 2.6526 37.378 3.7686 37.378C4.7046 37.378 5.7126 37.144 6.7926 36.676C7.9086 36.208 8.9526 35.596 9.9246 34.84C10.9326 34.084 11.7606 33.274 12.4086 32.41C13.0566 31.546 13.3806 30.718 13.3806 29.926C13.3806 29.386 13.2006 28.9 12.8406 28.468C12.5166 28.036 11.9766 27.712 11.2206 27.496L7.6566 26.416C6.7566 26.128 6.1086 25.75 5.7126 25.282C5.3166 24.814 5.1186 24.292 5.1186 23.716C5.1186 22.636 5.5146 21.664 6.3066 20.8C7.1346 19.936 8.1606 19.252 9.3846 18.748C10.6086 18.244 11.7966 17.992 12.9486 17.992C14.1006 17.992 15.1086 18.28 15.9726 18.856C16.8366 19.396 17.2686 20.134 17.2686 21.07C17.2686 21.61 17.1066 22.114 16.7826 22.582C16.4946 23.05 16.1526 23.284 15.7566 23.284C15.1446 23.284 14.8386 23.032 14.8386 22.528C14.8386 22.348 14.9286 22.132 15.1086 21.88C15.3246 21.592 15.4326 21.322 15.4326 21.07C15.4326 19.99 14.6046 19.45 12.9486 19.45C12.0486 19.45 11.1486 19.648 10.2486 20.044C9.3846 20.404 8.6646 20.89 8.0886 21.502C7.5126 22.114 7.2246 22.78 7.2246 23.5C7.2246 24.22 7.9446 24.796 9.3846 25.228L12.8406 26.308C13.8846 26.632 14.6046 27.082 15.0006 27.658C15.3966 28.198 15.5946 28.81 15.5946 29.494C15.5946 31.114 14.6046 32.788 12.6246 34.516C9.4206 37.36 6.3246 38.782 3.3366 38.782ZM48.2954 37.54C46.2074 37.54 45.1634 36.55 45.1634 34.57C45.1634 33.274 45.4694 31.888 46.0814 30.412C46.7294 28.9 47.5934 27.442 48.6734 26.038C49.7534 24.598 50.9594 23.302 52.2914 22.15C53.6234 20.962 54.9914 20.026 56.3954 19.342C57.7994 18.622 59.1494 18.262 60.4454 18.262C62.7494 18.262 63.9014 19.396 63.9014 21.664C63.9014 23.14 63.5414 23.878 62.8214 23.878C62.1734 23.878 61.8494 23.572 61.8494 22.96C61.8494 22.708 61.9034 22.456 62.0114 22.204C62.1554 21.916 62.2274 21.61 62.2274 21.286C62.2274 20.278 61.5434 19.774 60.1754 19.774C57.9794 19.774 55.2254 21.448 51.9134 24.796C51.1214 25.624 50.3474 26.596 49.5914 27.712C48.8354 28.828 48.2054 29.962 47.7014 31.114C47.2334 32.23 46.9994 33.292 46.9994 34.3C46.9994 35.272 47.5394 35.758 48.6194 35.758C49.5554 35.758 50.5454 35.47 51.5894 34.894C52.6694 34.318 53.6054 33.724 54.3974 33.112C55.9814 31.924 57.6014 30.304 59.2574 28.252C59.5094 27.964 59.8334 27.586 60.2294 27.118C60.6254 26.65 61.0754 26.128 61.5794 25.552C61.7594 25.372 61.9754 25.282 62.2274 25.282C62.8034 25.282 63.0914 25.57 63.0914 26.146L61.0394 29.224C59.6714 31.24 58.9874 32.896 58.9874 34.192C58.9874 35.128 59.4374 35.596 60.3374 35.596C61.0934 35.596 61.9214 35.398 62.8214 35.002C63.7214 34.606 64.4594 34.21 65.0354 33.814C66.1874 33.058 67.3934 32.122 68.6534 31.006C69.9134 29.854 71.1194 28.702 72.2714 27.55C72.4154 27.406 72.6314 27.334 72.9194 27.334C73.4594 27.334 73.7294 27.55 73.7294 27.982C73.7294 28.378 73.4774 28.828 72.9734 29.332C71.5334 30.772 70.2374 32.014 69.0854 33.058C67.9334 34.066 66.8354 34.894 65.7914 35.542C65.1074 35.938 64.2614 36.352 63.2534 36.784C62.2454 37.216 61.0934 37.432 59.7974 37.432C58.0334 37.432 57.1514 36.496 57.1514 34.624C57.1514 33.904 57.2414 33.31 57.4214 32.842C54.1454 35.974 51.1034 37.54 48.2954 37.54ZM98.5209 54.766C97.0089 54.766 95.8749 54.19 95.1189 53.038C94.3629 51.922 93.9849 50.644 93.9849 49.204C93.9849 48.124 94.0389 47.062 94.1469 46.018C94.2189 45.01 94.3449 44.002 94.5249 42.994C94.6329 42.418 94.8849 42.13 95.2809 42.13C96.0009 42.13 96.3609 42.508 96.3609 43.264C96.3609 43.48 96.3069 43.804 96.1989 44.236C96.0909 44.596 96.0369 44.866 96.0369 45.046C95.9649 45.622 95.9109 46.216 95.8749 46.828C95.8389 47.476 95.8209 48.124 95.8209 48.772C95.8209 51.616 96.8649 53.038 98.9529 53.038C99.5649 53.038 100.267 52.624 101.059 51.796C101.887 50.968 102.625 50.068 103.273 49.096C104.785 46.828 106.387 43.246 108.079 38.35L109.861 33.22C106.945 36.712 104.317 38.458 101.977 38.458C100.537 38.458 99.4209 37.918 98.6289 36.838C97.8369 35.758 97.4409 34.444 97.4409 32.896C97.4409 29.8 98.8089 26.38 101.545 22.636C104.533 18.64 107.467 16.642 110.347 16.642C112.615 16.642 114.109 17.974 114.829 20.638C116.197 17.326 117.457 15.67 118.609 15.67C119.041 15.67 119.257 16.03 119.257 16.75C119.257 18.19 118.591 20.116 117.259 22.528C116.971 22.996 116.611 23.572 116.179 24.256C115.783 24.94 115.333 25.75 114.829 26.686L112.993 31.168C112.633 32.032 112.183 33.13 111.643 34.462C111.103 35.758 110.491 37.288 109.807 39.052C109.015 41.212 108.277 43.066 107.593 44.614C106.945 46.198 106.351 47.494 105.811 48.502C103.471 52.678 101.113 54.766 98.7369 54.766H98.5209ZM101.977 36.568C104.245 36.568 107.593 33.526 112.021 27.442L113.587 23.446C113.335 23.266 113.155 22.888 113.047 22.312C112.723 20.764 112.345 19.738 111.913 19.234C111.481 18.73 110.905 18.478 110.185 18.478C109.357 18.478 108.403 18.856 107.323 19.612C106.243 20.368 105.217 21.304 104.245 22.42C103.273 23.5 102.499 24.562 101.923 25.606C100.195 28.558 99.3309 31.096 99.3309 33.22C99.3309 35.452 100.213 36.568 101.977 36.568ZM148.016 37.54C145.928 37.54 144.884 36.55 144.884 34.57C144.884 33.274 145.19 31.888 145.802 30.412C146.45 28.9 147.314 27.442 148.394 26.038C149.474 24.598 150.68 23.302 152.012 22.15C153.344 20.962 154.712 20.026 156.116 19.342C157.52 18.622 158.87 18.262 160.166 18.262C162.47 18.262 163.622 19.396 163.622 21.664C163.622 23.14 163.262 23.878 162.542 23.878C161.894 23.878 161.57 23.572 161.57 22.96C161.57 22.708 161.624 22.456 161.732 22.204C161.876 21.916 161.948 21.61 161.948 21.286C161.948 20.278 161.264 19.774 159.896 19.774C157.7 19.774 154.946 21.448 151.634 24.796C150.842 25.624 150.068 26.596 149.312 27.712C148.556 28.828 147.926 29.962 147.422 31.114C146.954 32.23 146.72 33.292 146.72 34.3C146.72 35.272 147.26 35.758 148.34 35.758C149.276 35.758 150.266 35.47 151.31 34.894C152.39 34.318 153.326 33.724 154.118 33.112C155.702 31.924 157.322 30.304 158.978 28.252C159.23 27.964 159.554 27.586 159.95 27.118C160.346 26.65 160.796 26.128 161.3 25.552C161.48 25.372 161.696 25.282 161.948 25.282C162.524 25.282 162.812 25.57 162.812 26.146L160.76 29.224C159.392 31.24 158.708 32.896 158.708 34.192C158.708 35.128 159.158 35.596 160.058 35.596C160.814 35.596 161.642 35.398 162.542 35.002C163.442 34.606 164.18 34.21 164.756 33.814C165.908 33.058 167.114 32.122 168.374 31.006C169.634 29.854 170.84 28.702 171.992 27.55C172.136 27.406 172.352 27.334 172.64 27.334C173.18 27.334 173.45 27.55 173.45 27.982C173.45 28.378 173.198 28.828 172.694 29.332C171.254 30.772 169.958 32.014 168.806 33.058C167.654 34.066 166.556 34.894 165.512 35.542C164.828 35.938 163.982 36.352 162.974 36.784C161.966 37.216 160.814 37.432 159.518 37.432C157.754 37.432 156.872 36.496 156.872 34.624C156.872 33.904 156.962 33.31 157.142 32.842C153.866 35.974 150.824 37.54 148.016 37.54ZM195.218 39.322C194.966 39.322 194.678 39.196 194.354 38.944C194.03 38.692 193.868 38.422 193.868 38.134C193.868 37.81 194.228 36.982 194.948 35.65C195.668 34.318 196.82 32.32 198.404 29.656C199.988 26.992 202.058 23.536 204.614 19.288L211.688 7.462C212.084 6.742 212.57 5.896 213.146 4.924C213.722 3.952 214.424 2.8 215.252 1.468C215.468 1.144 215.702 0.981997 215.954 0.981997C216.206 0.981997 216.458 1.108 216.71 1.36C216.962 1.576 217.088 1.81 217.088 2.062C217.088 2.206 216.188 3.808 214.388 6.868C212.588 9.892 209.87 14.41 206.234 20.422C204.866 22.69 203.372 25.192 201.752 27.928C200.168 30.664 198.476 33.634 196.676 36.838C207.116 34.03 215.144 32.626 220.76 32.626C222.452 32.626 223.856 32.914 224.972 33.49C226.124 34.03 226.7 34.57 226.7 35.11C226.7 35.722 226.394 36.028 225.782 36.028C225.278 36.028 225.026 35.758 225.026 35.218V35.056C224.666 34.876 224.054 34.732 223.19 34.624C222.326 34.516 221.336 34.462 220.22 34.462C218.852 34.462 217.304 34.588 215.576 34.84C213.848 35.056 212.084 35.344 210.284 35.704C208.52 36.028 206.864 36.37 205.316 36.73C203.804 37.054 202.364 37.396 200.996 37.756C199.664 38.152 198.422 38.494 197.27 38.782C196.586 38.926 196.082 39.052 195.758 39.16C195.47 39.268 195.29 39.322 195.218 39.322ZM260.024 37.54C257.936 37.54 256.892 36.55 256.892 34.57C256.892 33.274 257.198 31.888 257.81 30.412C258.458 28.9 259.322 27.442 260.402 26.038C261.482 24.598 262.688 23.302 264.02 22.15C265.352 20.962 266.72 20.026 268.124 19.342C269.528 18.622 270.878 18.262 272.174 18.262C274.478 18.262 275.63 19.396 275.63 21.664C275.63 23.14 275.27 23.878 274.55 23.878C273.902 23.878 273.578 23.572 273.578 22.96C273.578 22.708 273.632 22.456 273.74 22.204C273.884 21.916 273.956 21.61 273.956 21.286C273.956 20.278 273.272 19.774 271.904 19.774C269.708 19.774 266.954 21.448 263.642 24.796C262.85 25.624 262.076 26.596 261.32 27.712C260.564 28.828 259.934 29.962 259.43 31.114C258.962 32.23 258.728 33.292 258.728 34.3C258.728 35.272 259.268 35.758 260.348 35.758C261.284 35.758 262.274 35.47 263.318 34.894C264.398 34.318 265.334 33.724 266.126 33.112C267.71 31.924 269.33 30.304 270.986 28.252C271.238 27.964 271.562 27.586 271.958 27.118C272.354 26.65 272.804 26.128 273.308 25.552C273.488 25.372 273.704 25.282 273.956 25.282C274.532 25.282 274.82 25.57 274.82 26.146L272.768 29.224C271.4 31.24 270.716 32.896 270.716 34.192C270.716 35.128 271.166 35.596 272.066 35.596C272.822 35.596 273.65 35.398 274.55 35.002C275.45 34.606 276.188 34.21 276.764 33.814C277.916 33.058 279.122 32.122 280.382 31.006C281.642 29.854 282.848 28.702 284 27.55C284.144 27.406 284.36 27.334 284.648 27.334C285.188 27.334 285.458 27.55 285.458 27.982C285.458 28.378 285.206 28.828 284.702 29.332C283.262 30.772 281.966 32.014 280.814 33.058C279.662 34.066 278.564 34.894 277.52 35.542C276.836 35.938 275.99 36.352 274.982 36.784C273.974 37.216 272.822 37.432 271.526 37.432C269.762 37.432 268.88 36.496 268.88 34.624C268.88 33.904 268.97 33.31 269.15 32.842C265.874 35.974 262.832 37.54 260.024 37.54ZM35.1234 107.806C34.8354 107.806 34.4754 107.662 34.0434 107.374C33.6474 107.122 33.3414 106.87 33.1254 106.618C32.6934 106.078 32.4054 105.43 32.2614 104.674C32.1174 103.918 32.0454 103.09 32.0454 102.19C32.0454 101.434 32.0634 100.624 32.0994 99.76C32.1714 98.86 32.2794 97.906 32.4234 96.898C31.4874 97.978 30.4254 99.04 29.2374 100.084C28.0854 101.092 26.8974 101.92 25.6734 102.568C24.4854 103.216 23.3514 103.54 22.2714 103.54C19.5714 103.54 18.2214 102.1 18.2214 99.22C18.2214 96.232 19.2654 93.352 21.3534 90.58C22.3974 89.212 23.5854 87.898 24.9174 86.638C26.2494 85.378 27.6534 84.352 29.1294 83.56C30.6054 82.768 32.0634 82.372 33.5034 82.372C34.5834 82.372 35.5374 82.786 36.3654 83.614C36.4374 83.47 36.5274 83.236 36.6354 82.912C36.7794 82.588 36.9774 82.174 37.2294 81.67C38.0934 79.798 39.0474 77.854 40.0914 75.838C41.1354 73.786 42.0714 72.094 42.8994 70.762C43.8354 69.286 44.7174 68.548 45.5454 68.548C46.1214 68.548 46.4094 68.998 46.4094 69.898C46.4094 71.446 44.9514 75.064 42.0354 80.752C41.8554 81.076 41.5314 81.67 41.0634 82.534C40.6314 83.362 40.1094 84.334 39.4974 85.45C38.9214 86.53 38.3274 87.61 37.7154 88.69C37.1034 89.77 36.5454 90.742 36.0414 91.606C35.5734 92.434 35.2314 93.01 35.0154 93.334C34.6194 94.954 34.3134 96.502 34.0974 97.978C33.8814 99.418 33.7734 100.912 33.7734 102.46C33.7734 103.036 33.7914 103.558 33.8274 104.026C33.8994 104.53 34.0434 104.926 34.2594 105.214C34.4394 105.43 34.6374 105.592 34.8534 105.7C35.0694 105.844 35.3214 105.97 35.6094 106.078C36.0414 106.186 36.2574 106.438 36.2574 106.834C36.2574 107.482 35.8794 107.806 35.1234 107.806ZM37.6614 85.234C39.0294 82.894 40.2354 80.716 41.2794 78.7C42.3234 76.648 43.1694 74.722 43.8174 72.922C42.3774 74.794 41.1714 76.774 40.1994 78.862C39.2274 80.95 38.3814 83.074 37.6614 85.234ZM21.8934 101.92C22.9374 101.92 24.0354 101.578 25.1874 100.894C26.3754 100.174 27.4914 99.328 28.5354 98.356C29.4714 97.492 30.3354 96.61 31.1274 95.71C31.9194 94.774 32.6574 93.82 33.3414 92.848C33.6294 91.588 33.9534 90.346 34.3134 89.122C34.7094 87.898 35.1414 86.674 35.6094 85.45C35.0334 84.55 34.2234 84.1 33.1794 84.1C32.0994 84.1 30.8934 84.514 29.5614 85.342C28.2654 86.134 27.0054 87.124 25.7814 88.312C24.5934 89.5 23.5674 90.634 22.7034 91.714C20.9034 94.126 20.0034 96.682 20.0034 99.382C20.0034 101.074 20.6334 101.92 21.8934 101.92ZM72.6517 103.972C71.1397 103.972 69.9517 103.45 69.0877 102.406C68.2237 101.362 67.7917 100.084 67.7917 98.572C67.7917 95.98 68.6557 93.316 70.3837 90.58C70.8517 89.824 71.3917 89.086 72.0037 88.366C72.6157 87.61 73.2817 86.89 74.0017 86.206C75.0817 85.162 76.2157 84.298 77.4037 83.614C78.5917 82.93 79.7437 82.588 80.8597 82.588C82.6957 82.588 83.6137 83.452 83.6137 85.18C83.6137 87.34 82.3537 89.302 79.8337 91.066C77.4937 92.65 75.1897 93.442 72.9217 93.442C72.5257 93.442 72.1657 93.424 71.8417 93.388C71.5537 93.316 71.2837 93.244 71.0317 93.172C70.6717 93.856 70.3477 94.738 70.0597 95.818C69.7717 96.898 69.6277 97.834 69.6277 98.626C69.6277 101.002 70.6717 102.19 72.7597 102.19C74.4517 102.19 76.0537 101.902 77.5657 101.326C79.0777 100.714 80.8777 99.58 82.9657 97.924C84.2617 96.916 85.2337 96.106 85.8817 95.494C86.5297 94.882 87.2317 94.234 87.9877 93.55C88.2037 93.406 88.4017 93.334 88.5817 93.334C88.7617 93.334 88.9417 93.388 89.1217 93.496C89.3017 93.604 89.3917 93.766 89.3917 93.982C89.3917 94.378 89.0317 94.936 88.3117 95.656C87.6997 96.232 87.0517 96.844 86.3677 97.492C85.6837 98.104 84.6037 98.968 83.1277 100.084C81.5437 101.308 79.8157 102.262 77.9437 102.946C76.0717 103.63 74.3077 103.972 72.6517 103.972ZM72.5977 91.714C73.7497 91.714 74.8477 91.534 75.8917 91.174C76.9357 90.814 77.9257 90.292 78.8617 89.608C80.9497 88.06 81.9937 86.602 81.9937 85.234C81.9937 84.622 81.6157 84.316 80.8597 84.316C79.4197 84.316 77.7457 85.198 75.8377 86.962C74.9017 87.826 74.1277 88.618 73.5157 89.338C72.9397 90.022 72.3997 90.778 71.8957 91.606C72.1117 91.678 72.3457 91.714 72.5977 91.714ZM114.316 104.782C112.3 104.782 111.292 104.116 111.292 102.784C111.292 101.956 111.58 101.128 112.156 100.3C112.768 99.472 113.488 98.716 114.316 98.032C115.144 97.348 115.918 96.826 116.638 96.466C116.854 96.358 117.142 96.25 117.502 96.142C117.898 96.034 118.222 95.98 118.474 95.98C118.762 95.98 118.906 96.088 118.906 96.304C118.906 96.484 118.708 96.682 118.312 96.898C116.656 97.69 115.36 98.644 114.424 99.76C113.524 100.84 113.074 101.722 113.074 102.406C113.074 103.054 113.632 103.378 114.748 103.378C115.684 103.378 116.692 103.144 117.772 102.676C118.888 102.208 119.932 101.596 120.904 100.84C121.912 100.084 122.74 99.274 123.388 98.41C124.036 97.546 124.36 96.718 124.36 95.926C124.36 95.386 124.18 94.9 123.82 94.468C123.496 94.036 122.956 93.712 122.2 93.496L118.636 92.416C117.736 92.128 117.088 91.75 116.692 91.282C116.296 90.814 116.098 90.292 116.098 89.716C116.098 88.636 116.494 87.664 117.286 86.8C118.114 85.936 119.14 85.252 120.364 84.748C121.588 84.244 122.776 83.992 123.928 83.992C125.08 83.992 126.088 84.28 126.952 84.856C127.816 85.396 128.248 86.134 128.248 87.07C128.248 87.61 128.086 88.114 127.762 88.582C127.474 89.05 127.132 89.284 126.736 89.284C126.124 89.284 125.818 89.032 125.818 88.528C125.818 88.348 125.908 88.132 126.088 87.88C126.304 87.592 126.412 87.322 126.412 87.07C126.412 85.99 125.584 85.45 123.928 85.45C123.028 85.45 122.128 85.648 121.228 86.044C120.364 86.404 119.644 86.89 119.068 87.502C118.492 88.114 118.204 88.78 118.204 89.5C118.204 90.22 118.924 90.796 120.364 91.228L123.82 92.308C124.864 92.632 125.584 93.082 125.98 93.658C126.376 94.198 126.574 94.81 126.574 95.494C126.574 97.114 125.584 98.788 123.604 100.516C120.4 103.36 117.304 104.782 114.316 104.782ZM168.563 81.724C167.951 81.724 167.645 81.418 167.645 80.806C167.645 80.626 167.771 80.302 168.023 79.834C168.275 79.33 168.563 78.826 168.887 78.322C169.211 77.818 169.463 77.476 169.643 77.296C170.255 76.612 170.723 76.18 171.047 76C171.407 75.82 171.731 75.73 172.019 75.73C172.775 75.73 173.153 76.072 173.153 76.756C173.153 77.008 172.991 77.314 172.667 77.674C172.379 77.998 172.037 78.304 171.641 78.592C171.065 78.952 170.705 79.24 170.561 79.456L169.373 81.13C169.337 81.274 169.247 81.418 169.103 81.562C168.995 81.67 168.815 81.724 168.563 81.724ZM159.383 103.594C158.375 103.594 157.637 103.396 157.169 103C156.737 102.604 156.521 102.01 156.521 101.218C156.521 100.462 156.755 99.436 157.223 98.14C157.691 96.808 158.285 95.386 159.005 93.874C159.761 92.362 160.553 90.922 161.381 89.554C162.209 88.186 163.001 87.07 163.757 86.206C164.549 85.306 165.179 84.856 165.647 84.856C166.295 84.856 166.619 85.144 166.619 85.72C166.619 86.08 166.313 86.764 165.701 87.772C165.089 88.78 164.423 89.824 163.703 90.904C163.415 91.3 163.019 91.84 162.515 92.524C162.011 93.208 161.525 93.856 161.057 94.468C160.589 95.044 160.283 95.44 160.139 95.656C159.779 96.196 159.401 97.078 159.005 98.302C158.573 99.526 158.357 100.462 158.357 101.11C158.357 101.398 158.411 101.614 158.519 101.758C158.663 101.902 158.969 101.974 159.437 101.974C160.337 101.974 161.345 101.686 162.461 101.11C163.577 100.534 164.711 99.814 165.863 98.95C167.015 98.05 168.095 97.132 169.103 96.196C170.147 95.26 171.029 94.45 171.749 93.766C171.893 93.622 172.109 93.55 172.397 93.55C172.937 93.55 173.207 93.766 173.207 94.198C173.207 94.594 172.955 95.044 172.451 95.548C171.479 96.52 170.579 97.384 169.751 98.14C168.923 98.896 168.131 99.562 167.375 100.138C166.187 101.002 164.873 101.794 163.433 102.514C161.993 103.234 160.643 103.594 159.383 103.594ZM198.162 120.766C196.65 120.766 195.516 120.19 194.76 119.038C194.004 117.922 193.626 116.644 193.626 115.204C193.626 114.124 193.68 113.062 193.788 112.018C193.86 111.01 193.986 110.002 194.166 108.994C194.274 108.418 194.526 108.13 194.922 108.13C195.642 108.13 196.002 108.508 196.002 109.264C196.002 109.48 195.948 109.804 195.84 110.236C195.732 110.596 195.678 110.866 195.678 111.046C195.606 111.622 195.552 112.216 195.516 112.828C195.48 113.476 195.462 114.124 195.462 114.772C195.462 117.616 196.506 119.038 198.594 119.038C199.206 119.038 199.908 118.624 200.7 117.796C201.528 116.968 202.266 116.068 202.914 115.096C204.426 112.828 206.028 109.246 207.72 104.35L209.502 99.22C206.586 102.712 203.958 104.458 201.618 104.458C200.178 104.458 199.062 103.918 198.27 102.838C197.478 101.758 197.082 100.444 197.082 98.896C197.082 95.8 198.45 92.38 201.186 88.636C204.174 84.64 207.108 82.642 209.988 82.642C212.256 82.642 213.75 83.974 214.47 86.638C215.838 83.326 217.098 81.67 218.25 81.67C218.682 81.67 218.898 82.03 218.898 82.75C218.898 84.19 218.232 86.116 216.9 88.528C216.612 88.996 216.252 89.572 215.82 90.256C215.424 90.94 214.974 91.75 214.47 92.686L212.634 97.168C212.274 98.032 211.824 99.13 211.284 100.462C210.744 101.758 210.132 103.288 209.448 105.052C208.656 107.212 207.918 109.066 207.234 110.614C206.586 112.198 205.992 113.494 205.452 114.502C203.112 118.678 200.754 120.766 198.378 120.766H198.162ZM201.618 102.568C203.886 102.568 207.234 99.526 211.662 93.442L213.228 89.446C212.976 89.266 212.796 88.888 212.688 88.312C212.364 86.764 211.986 85.738 211.554 85.234C211.122 84.73 210.546 84.478 209.826 84.478C208.998 84.478 208.044 84.856 206.964 85.612C205.884 86.368 204.858 87.304 203.886 88.42C202.914 89.5 202.14 90.562 201.564 91.606C199.836 94.558 198.972 97.096 198.972 99.22C198.972 101.452 199.854 102.568 201.618 102.568ZM243.446 104.35C242.87 104.35 242.582 104.116 242.582 103.648C242.582 103.468 242.654 103.252 242.798 103C242.942 102.712 243.068 102.478 243.176 102.298L248.036 92.524C250.124 88.276 251.168 85.918 251.168 85.45C251.168 84.946 251.42 84.694 251.924 84.694C252.608 84.694 252.95 85.054 252.95 85.774C252.95 86.026 252.788 86.566 252.464 87.394C252.14 88.222 251.726 89.158 251.222 90.202C250.358 92.074 249.638 93.514 249.062 94.522C250.142 93.262 251.24 92.074 252.356 90.958C253.472 89.842 254.606 88.78 255.758 87.772C259.178 84.784 261.806 83.29 263.642 83.29C264.902 83.29 265.532 83.884 265.532 85.072C265.532 86.152 264.614 88.582 262.778 92.362C260.942 96.178 260.024 98.59 260.024 99.598C260.024 100.066 260.186 100.3 260.51 100.3C260.618 100.3 260.78 100.264 260.996 100.192C261.248 100.084 261.5 100.03 261.752 100.03C262.364 100.03 262.67 100.318 262.67 100.894C262.67 101.614 261.896 101.974 260.348 101.974C259.628 101.974 259.106 101.812 258.782 101.488C258.458 101.128 258.296 100.66 258.296 100.084C258.296 98.356 259.178 95.728 260.942 92.2C262.706 88.708 263.588 86.602 263.588 85.882C263.588 85.45 263.426 85.234 263.102 85.234C262.31 85.234 261.032 85.9 259.268 87.232C257.36 88.672 255.452 90.328 253.544 92.2C251.636 94.072 249.818 96.214 248.09 98.626L244.31 103.864C244.094 104.188 243.806 104.35 243.446 104.35Z" fill="white"/>
</svg>
